<?xml version="1.0" standalone="no"?>
<!DOCTYPE svg PUBLIC "-//W3C//DTD SVG 20010904//EN"
 "http://www.w3.org/TR/2001/REC-SVG-20010904/DTD/svg10.dtd">
<svg version="1.0" xmlns="http://www.w3.org/2000/svg"
 width="700.000000pt" height="700.000000pt" viewBox="0 0 700.000000 700.000000"
 preserveAspectRatio="xMidYMid meet">
<metadata>
Created by potrace 1.14, written by Peter Selinger 2001-2017
</metadata>
<g transform="translate(0.000000,700.000000) scale(0.100000,-0.100000)"
fill="#000000" stroke="none">
<path d="M3278 6995 c-1 -1 -42 -5 -89 -9 -47 -4 -95 -8 -105 -10 -10 -2 -48
-7 -84 -12 -36 -4 -67 -8 -70 -9 -3 -1 -25 -5 -50 -9 -25 -4 -101 -21 -170
-38 -69 -16 -133 -31 -143 -33 -43 -9 -251 -80 -357 -122 -150 -59 -391 -177
-515 -252 -43 -26 -242 -158 -259 -172 -6 -5 -49 -39 -96 -76 -437 -343 -817
-826 -1025 -1303 -25 -58 -50 -114 -55 -125 -39 -82 -128 -358 -169 -525 -24
-103 -58 -298 -67 -385 -2 -22 -7 -76 -11 -120 -15 -155 -8 -587 12 -706 2
-13 6 -46 9 -74 8 -68 15 -110 28 -175 6 -30 12 -59 14 -65 18 -91 63 -257 96
-355 270 -814 800 -1479 1533 -1922 183 -110 434 -228 640 -300 177 -63 453
-133 590 -152 54 -7 113 -15 150 -21 129 -20 537 -27 715 -12 883 74 1725 496
2310 1156 36 41 70 79 76 85 29 30 185 242 240 326 231 352 396 740 490 1155
19 82 52 278 59 350 4 39 9 84 12 100 8 59 10 512 2 597 -8 84 -18 172 -24
213 -1 11 -6 43 -10 70 -3 28 -8 58 -11 67 -5 18 -11 46 -20 93 -12 66 -65
266 -94 355 -328 990 -1052 1768 -2010 2163 -227 93 -527 177 -760 213 -25 3
-54 8 -65 10 -10 2 -49 6 -85 10 -36 3 -78 8 -95 11 -33 5 -531 13 -537 8z
m412 -529 c127 -8 363 -40 435 -60 6 -1 37 -9 70 -16 210 -48 484 -150 675
-252 205 -110 409 -248 567 -383 131 -112 313 -306 436 -465 276 -354 488
-851 563 -1320 2 -14 6 -38 9 -55 2 -16 7 -57 10 -90 4 -33 8 -78 11 -100 7
-59 6 -369 -1 -450 -10 -120 -25 -226 -46 -335 -12 -58 -23 -115 -25 -127 -2
-12 -20 -76 -39 -143 -99 -340 -263 -666 -481 -957 -105 -139 -149 -189 -292
-330 -262 -260 -559 -460 -912 -616 -244 -108 -583 -196 -855 -222 -33 -3 -78
-8 -100 -10 -49 -6 -376 -6 -429 0 -22 2 -69 6 -105 10 -68 6 -83 8 -186 26
-33 6 -69 12 -80 13 -11 2 -40 9 -65 16 -25 7 -56 14 -70 17 -58 10 -280 80
-345 108 -16 8 -55 23 -85 35 -127 50 -349 169 -490 263 -71 48 -222 159 -246
182 -6 5 -40 35 -75 65 -97 84 -198 188 -314 320 -71 81 -275 367 -275 386 0
3 -9 18 -20 34 -32 45 -146 277 -188 385 -90 228 -148 446 -187 705 -3 19 -8
51 -11 70 -10 60 -13 552 -4 615 5 33 11 83 14 110 7 56 12 87 27 161 5 28 12
64 15 80 9 55 74 281 103 360 123 339 278 611 515 904 58 71 278 297 341 350
417 348 853 562 1355 664 112 22 130 25 195 32 33 3 66 7 74 10 8 3 75 7 150
11 75 3 137 6 138 7 3 2 137 -3 223 -8z"/>
<path d="M2956 5324 c-37 -7 -91 -21 -120 -30 -65 -20 -190 -76 -194 -86 -2
-5 -9 -8 -16 -8 -36 0 -252 -186 -304 -261 -8 -13 -18 -26 -22 -29 -3 -3 -17
-23 -32 -46 -69 -107 -127 -253 -152 -386 -14 -71 -15 -314 -3 -366 45 -181
111 -333 195 -442 61 -81 179 -193 255 -243 106 -70 273 -140 390 -163 67 -13
171 -16 546 -17 454 -1 483 -3 597 -59 179 -87 297 -279 297 -482 0 -242 -162
-456 -397 -523 -54 -16 -117 -18 -558 -18 -439 0 -522 -3 -490 -17 4 -1 43
-43 87 -93 44 -49 91 -99 105 -111 14 -12 39 -34 55 -49 48 -42 183 -122 261
-155 63 -26 104 -39 216 -67 53 -13 295 -12 363 2 265 52 480 182 639 385 66
84 68 88 122 197 69 141 96 259 98 423 2 215 -20 316 -109 495 -144 290 -409
491 -740 561 -50 11 -190 15 -580 18 -350 3 -428 6 -467 19 -241 81 -400 294
-392 528 8 258 173 460 424 522 42 10 166 13 537 13 346 -1 483 2 483 10 0 20
-254 271 -315 311 -118 79 -245 133 -381 163 -99 21 -298 24 -398 4z"/>
<path d="M3065 4616 c-67 -19 -99 -37 -143 -79 -51 -49 -55 -55 -81 -116 -29
-69 -32 -155 -7 -235 14 -48 29 -71 80 -122 52 -52 73 -66 127 -82 167 -52
335 21 407 176 37 81 38 193 1 273 -68 145 -236 226 -384 185z"/>
<path d="M3707 3029 c-177 -42 -289 -224 -247 -400 68 -284 445 -346 602 -100
113 180 29 420 -172 490 -48 16 -137 21 -183 10z"/>
</g>
</svg>
