<svg version="1.1" xmlns="http://www.w3.org/2000/svg" xmlns:xlink="http://www.w3.org/1999/xlink" x="0px" y="0px" width="748.8px"
     height="748.8px" viewBox="0 0 748.8 748.8" style="overflow:visible;enable-background:new 0 0 748.8 748.8;"
     xml:space="preserve">
<style type="text/css">
    .st0{fill:url(#SVGID_1_);}
    .st1{fill:url(#SVGID_2_);}
</style>
<defs>
</defs>
<linearGradient id="SVGID_1_" gradientUnits="userSpaceOnUse" x1="30.6137" y1="82.1477" x2="680.0255" y2="634.1477">
    <stop  offset="0" style="stop-color:#135B98"/>
    <stop  offset="1" style="stop-color:#13516C"/>
</linearGradient>
<path class="st0" d="M336.6,253.8c19.6,0,35.6,16,35.6,35.6c0,19.6-16,35.6-35.6,35.6c-19.6,0-35.6-16-35.6-35.6
    C301,269.7,317,253.8,336.6,253.8z M748.8,374.4c0,50.5-9.9,99.6-29.4,145.7c-18.9,44.6-45.9,84.6-80.2,119
    c-34.4,34.4-74.4,61.4-119,80.2c-46.2,19.5-95.2,29.4-145.7,29.4h0c-50.5,0-99.6-9.9-145.7-29.5c-44.6-18.9-84.6-45.9-119-80.2
    c-34.4-34.4-61.4-74.4-80.2-119C9.9,473.9,0,424.9,0,374.4c0-50.5,9.9-99.6,29.4-145.7c18.9-44.6,45.9-84.6,80.2-119
    s74.4-61.4,119-80.2C274.8,9.9,323.9,0,374.4,0S474,9.9,520.1,29.4c44.6,18.9,84.6,45.9,119,80.2s61.4,74.4,80.2,119
    C738.9,274.8,748.8,323.9,748.8,374.4z M374.4,56.4h-0.2c-84.9,0-164.7,33.1-224.7,93.2c-60,60.1-93,139.9-93,224.8
    c0,175.3,142.6,318,318,318s318-142.6,318-318S549.7,56.4,374.4,56.4z M412.2,347.4h-75.6c-32,0-58-26-58-58s26-58,58-58h98
    l-15-16.7c-21.4-23.7-51.6-37.3-83-37.3c-61.8,0-112,50.3-112,112s50.3,112,112,112h75.6c32,0,58,26,58,58s-26,58-58,58h-98l15,16.7
    c21.4,23.7,51.6,37.3,83,37.3c61.8,0,112-50.3,112-112S473.9,347.4,412.2,347.4z M440.2,459.4c0-19.6-16-35.6-35.6-35.6
    c-19.6,0-35.6,16-35.6,35.6c0,19.6,16,35.6,35.6,35.6C424.3,495,440.2,479,440.2,459.4z"/>
</svg>